<svg width="100" height="92" viewBox="0 0 100 92" fill="none" xmlns="http://www.w3.org/2000/svg">
<path fill-rule="evenodd" clip-rule="evenodd" d="M6.71363 41.5623C6.71273 34.0143 9.14695 26.6713 13.6482 20.6438C18.1494 14.6163 24.4727 10.2322 31.6619 8.15445C38.8511 6.07671 46.5151 6.41839 53.4948 9.1278C60.4744 11.8372 66.3902 16.767 70.3474 23.1716C70.8163 23.9278 71.5636 24.4651 72.4249 24.6652C73.2862 24.8653 74.191 24.7119 74.9403 24.2386C75.6895 23.7654 76.2218 23.0111 76.4201 22.1417C76.6183 21.2723 76.4663 20.3591 75.9974 19.6028C70.4761 10.623 61.7664 4.10969 51.6474 1.3933C41.5285 -1.32309 30.7638 -0.0375775 21.5522 4.98725C12.3407 10.0121 5.37735 18.397 2.08456 28.4294C-1.20824 38.4618 -0.58201 49.3846 3.83532 58.9667L6.85577 57.5589L3.83532 58.9711L3.87974 59.0563C5.72754 63.0913 6.68254 65.1716 5.8608 68.0634C5.70089 68.6238 5.46103 69.1528 5.10569 69.9285C4.99464 70.1661 4.87471 70.4261 4.75034 70.7175C4.26618 71.7846 3.631 73.2955 3.4933 75.0036C3.40431 76.0913 3.56241 77.1852 3.95555 78.202C4.34869 79.2187 4.96651 80.1315 5.76196 80.8708C6.5574 81.6101 7.50951 82.1565 8.54576 82.4683C9.58202 82.7801 10.6751 82.8492 11.7418 82.6701C14.2292 82.2487 16.3791 81.1279 17.8893 80.3388C18.2446 80.1505 18.5733 79.9801 18.8532 79.8456C20.3989 79.1059 21.6249 78.7472 23.4816 79.1866L23.5082 79.1955L23.5926 79.218L23.8902 79.3076L24.9118 79.6573C25.778 79.9622 26.9729 80.3971 28.5986 80.9799C30.2598 81.5807 31.9744 82.047 33.7644 82.3832C34.2005 82.4795 34.6512 82.4864 35.0899 82.4034C35.5286 82.3205 35.9464 82.1494 36.3183 81.9003C36.6902 81.6512 37.0088 81.3292 37.255 80.9535C37.5013 80.5777 37.6702 80.1559 37.7518 79.7129C37.8333 79.27 37.8259 78.815 37.7299 78.3751C37.6339 77.9351 37.4512 77.5191 37.1928 77.1517C36.9344 76.7844 36.6055 76.4732 36.2256 76.2367C35.8458 76.0001 35.4227 75.843 34.9815 75.7747C33.5739 75.5121 32.1896 75.1358 30.8417 74.6494L30.3042 74.4522C27.5414 73.4569 25.818 72.8337 25.0051 72.6409C21.1363 71.7218 18.2979 72.6678 15.9926 73.7752C15.3574 74.08 14.8111 74.358 14.3181 74.6136C12.9633 75.313 12.0083 75.8016 10.6491 76.0348C10.5824 76.0459 10.5141 76.0416 10.4493 76.022C10.3845 76.0025 10.325 75.9683 10.2753 75.922C10.2256 75.8758 10.187 75.8186 10.1625 75.7551C10.138 75.6915 10.1282 75.6231 10.1338 75.5551C10.1694 75.0978 10.3648 74.5015 10.8179 73.4882L11.04 72.9951C11.4264 72.1656 11.9506 71.0314 12.2659 69.9195C13.7895 64.5574 11.8173 60.3072 10.2049 56.8415L9.8851 56.1421C7.7892 51.5731 6.70684 46.5973 6.71363 41.5623ZM70.0098 31.4747C62.058 31.4747 54.4318 34.6631 48.8091 40.3385C43.1863 46.0138 40.0274 53.7112 40.0274 61.7374C40.0274 69.7635 43.1863 77.4609 48.8091 83.1363C54.4318 88.8116 62.058 92 70.0098 92C73.3767 92 76.3661 91.5113 79.1911 90.4936C80.2863 90.0994 81.3834 89.7108 82.4825 89.3279C82.6691 89.2652 82.7179 89.2517 82.7001 89.2607C83.7129 89.0186 84.3392 89.1844 85.3208 89.6552C85.4807 89.7314 85.6762 89.8345 85.9072 89.9556C86.9554 90.507 88.6611 91.4037 90.5977 91.7265C91.4975 91.8776 92.4195 91.8195 93.2936 91.5566C94.1678 91.2938 94.971 90.8332 95.6422 90.2098C96.3133 89.5863 96.8348 88.8166 97.1668 87.9592C97.4988 87.1017 97.6326 86.1791 97.5581 85.2615C97.4285 84.0973 97.1009 82.9643 96.5898 81.9125C96.4988 81.7073 96.407 81.5026 96.3144 81.2982C96.132 80.9341 95.9776 80.5564 95.8524 80.1684C95.386 78.5275 95.8702 77.4022 97.2294 74.4432C99.343 69.8314 100.272 64.7567 99.9311 59.6871C99.59 54.6174 97.9897 49.7161 95.2778 45.4351C92.5659 41.154 88.8296 37.6312 84.4136 35.1914C79.9976 32.7516 75.0441 31.4734 70.0098 31.4747ZM46.6902 61.7374C46.6935 58.1949 47.489 54.6988 49.0174 51.5098C50.5457 48.3208 52.7675 45.5211 55.5172 43.3195C58.2668 41.1179 61.4733 39.5712 64.8976 38.7946C68.322 38.018 71.8758 38.0316 75.2942 38.8344C78.7126 39.6371 81.9075 41.2084 84.6405 43.4309C87.3735 45.6535 89.5742 48.47 91.0786 51.6706C92.583 54.8712 93.3522 58.3733 93.3289 61.9157C93.3057 65.4582 92.4905 68.9496 90.9442 72.1298C89.8115 74.5508 88.2658 77.873 89.4473 82.029C89.696 82.8943 90.1136 83.791 90.3801 84.3738L90.5178 84.6787L90.5533 84.7594C90.192 84.5971 89.8365 84.4221 89.4873 84.2348C89.0538 84.01 88.617 83.7918 88.1769 83.5803C86.4357 82.7464 84.2015 81.9932 81.1722 82.715C80.5414 82.8629 79.2799 83.3202 77.4055 83.9972L76.948 84.1631C74.9314 84.8894 72.7149 85.275 70.0098 85.275C63.8251 85.275 57.8936 82.7951 53.5203 78.381C49.1471 73.9668 46.6902 67.9799 46.6902 61.7374Z" fill="#FF831E"/>
</svg>
