<svg width="84" height="92" viewBox="0 0 84 92" fill="none" xmlns="http://www.w3.org/2000/svg">
<path fill-rule="evenodd" clip-rule="evenodd" d="M6.4189 39.5832C6.4189 20.1981 21.8542 6.4189 41.7229 6.4189C61.5915 6.4189 77.0268 20.1981 77.0268 39.5832C77.0268 55.3309 70.0345 66.8379 61.9809 74.4593C58.4002 77.8656 54.3386 80.7276 49.9262 82.9536C46.0792 84.8579 43.1308 85.5854 41.7229 85.5854C40.3107 85.5854 37.3666 84.8579 33.5195 82.9536C29.1071 80.7276 25.0455 77.8656 21.4648 74.4593C13.4112 66.8379 6.4189 55.3309 6.4189 39.5832ZM41.7229 0C18.7988 0 0 16.1756 0 39.5832C0 57.4278 7.98512 70.5352 17.0486 79.1194C21.0939 82.9657 25.6834 86.1955 30.6695 88.705C34.8461 90.7761 38.8515 92 41.7229 92C44.59 92 48.5997 90.7761 52.7762 88.705C57.7623 86.1955 62.3519 82.9657 66.3971 79.1194C75.4606 70.5352 83.4457 57.4321 83.4457 39.5832C83.4457 16.1756 64.6469 0 41.7229 0ZM32.0945 41.7229C32.0945 39.1693 33.1089 36.7203 34.9146 34.9146C36.7203 33.1089 39.1693 32.0945 41.7229 32.0945C44.2765 32.0945 46.7255 33.1089 48.5312 34.9146C50.3368 36.7203 51.3512 39.1693 51.3512 41.7229C51.3512 44.2765 50.3368 46.7255 48.5312 48.5311C46.7255 50.3368 44.2765 51.3512 41.7229 51.3512C39.1693 51.3512 36.7203 50.3368 34.9146 48.5311C33.1089 46.7255 32.0945 44.2765 32.0945 41.7229ZM41.7229 25.6756C39.6155 25.6756 37.5288 26.0907 35.5819 26.8971C33.6349 27.7036 31.8659 28.8856 30.3757 30.3757C28.8856 31.8659 27.7036 33.6349 26.8971 35.5819C26.0907 37.5288 25.6756 39.6155 25.6756 41.7229C25.6756 43.8302 26.0907 45.9169 26.8971 47.8639C27.7036 49.8108 28.8856 51.5799 30.3757 53.07C31.8659 54.5601 33.6349 55.7422 35.5819 56.5486C37.5288 57.3551 39.6155 57.7701 41.7229 57.7701C45.9789 57.7701 50.0606 56.0794 53.07 53.07C56.0794 50.0606 57.7701 45.9789 57.7701 41.7229C57.7701 37.4669 56.0794 33.3852 53.07 30.3757C50.0606 27.3663 45.9789 25.6756 41.7229 25.6756Z" fill="#FF831E"/>
</svg>
