<svg width="90" height="92" viewBox="0 0 90 92" fill="none" xmlns="http://www.w3.org/2000/svg">
<path fill-rule="evenodd" clip-rule="evenodd" d="M49.7428 6.89069C46.6392 6.03691 43.3608 6.03691 40.2572 6.89069C38.6498 7.33199 37.0088 8.15631 34.7735 9.68006C32.5047 11.2288 29.8088 13.3687 26.0414 16.3704L17.6693 23.0316C12.9181 26.8118 11.0177 28.3564 9.66558 30.2132C8.41553 31.9287 7.48541 33.8535 6.91954 35.896C6.30419 38.1067 6.27907 40.5464 6.27907 46.5998V68.0613C6.27907 72.754 8.15344 77.2545 11.4898 80.5727C13.1419 82.2158 15.1031 83.5191 17.2616 84.4083C19.42 85.2975 21.7335 85.7551 24.0698 85.7551C26.9581 85.7551 29.3023 83.4237 29.3023 80.5511V63.8981C29.3023 59.7575 30.9562 55.7864 33.9001 52.8586C36.844 49.9307 40.8367 48.2859 45 48.2859C49.1633 48.2859 53.156 49.9307 56.0999 52.8586C59.0438 55.7864 60.6977 59.7575 60.6977 63.8981V80.5511C60.6977 83.4237 63.0419 85.7551 65.9302 85.7551C70.6486 85.7551 75.1738 83.891 78.5102 80.5727C81.8466 77.2545 83.7209 72.754 83.7209 68.0613V46.5998C83.7209 40.5464 83.6958 38.1067 83.0805 35.9002C82.5151 33.8562 81.5849 31.93 80.3344 30.2132C78.9823 28.3564 77.0819 26.8118 72.3307 23.0316L63.9586 16.3704C60.1912 13.3729 57.4953 11.2288 55.2265 9.68006C52.9912 8.15631 51.3502 7.33199 49.7428 6.89069ZM38.5828 0.866464C42.7821 -0.288821 47.2179 -0.288821 51.4172 0.866464C53.954 1.56589 56.2479 2.79821 58.7805 4.53012C61.2586 6.2204 64.1344 8.50603 67.7847 11.412L67.8809 11.4869L76.6298 18.4479C80.887 21.8326 83.5033 23.9184 85.4205 26.5412C87.113 28.8636 88.3721 31.4696 89.1377 34.2349C90 37.3573 90 40.6963 90 46.1168V68.0613C90 71.205 89.3774 74.3179 88.1678 77.2223C86.9582 80.1266 85.1852 82.7656 82.9501 84.9885C80.715 87.2114 78.0616 88.9747 75.1413 90.1778C72.2211 91.3808 69.0911 92 65.9302 92C62.8772 92 59.9491 90.7938 57.7903 88.6467C55.6314 86.4996 54.4186 83.5875 54.4186 80.5511V63.8981C54.4186 61.4137 53.4263 59.0311 51.66 57.2744C49.8936 55.5177 47.498 54.5308 45 54.5308C42.502 54.5308 40.1064 55.5177 38.34 57.2744C36.5737 59.0311 35.5814 61.4137 35.5814 63.8981V80.5511C35.5814 83.5875 34.3686 86.4996 32.2097 88.6467C30.0509 90.7938 27.1228 92 24.0698 92C17.6861 92 11.5638 89.4779 7.04987 84.9885C2.53591 80.4992 0 74.4103 0 68.0613V46.121C0 40.7004 -1.19209e-07 37.3657 0.862325 34.2391C1.62795 31.4737 2.88703 28.8678 4.57954 26.5454C6.49256 23.9225 9.11302 21.8409 13.3702 18.452L22.1191 11.4911L22.2153 11.4161C25.8656 8.51019 28.7414 6.22457 31.2195 4.53012C33.7521 2.80238 36.046 1.57005 38.5828 0.870627V0.866464Z" fill="#FF831E"/>
</svg>
