<svg width="83" height="92" viewBox="0 0 83 92" fill="none" xmlns="http://www.w3.org/2000/svg">
<path fill-rule="evenodd" clip-rule="evenodd" d="M40.5125 0H42.4875C45.9479 0 48.7402 -8.9407e-08 51.0003 0.184C53.3243 0.376558 55.3674 0.78307 57.2572 1.75014C60.2626 3.28792 62.7063 5.74311 64.2377 8.76354C65.1997 10.6634 65.5998 12.7174 65.7913 15.0538C65.9744 17.326 65.9744 20.133 65.9744 23.6119V26.1323C68.1792 26.4318 70.1371 26.9581 71.9631 27.8867C75.7668 29.8373 78.8586 32.9485 80.7952 36.7743C81.9912 39.1278 82.5105 41.7124 82.7574 44.7676C83 47.7501 83 51.4558 83 56.1286V61.5459C83 66.2186 83 69.9243 82.7574 72.9068C82.5105 75.9621 81.9912 78.5423 80.7994 80.9044C78.8603 84.7277 75.7671 87.8358 71.9631 89.7834C69.6136 90.9859 67.047 91.5079 64.0079 91.7561C61.0412 92 57.3551 92 52.7071 92H30.2929C25.6449 92 21.9588 92 18.9921 91.7561C15.953 91.5079 13.3864 90.9859 11.0411 89.7877C7.23649 87.839 4.14325 84.7293 2.20482 80.9044C1.00877 78.5423 0.489487 75.9621 0.242615 72.9068C-3.27826e-07 69.9243 0 66.2186 0 61.5459V56.1286C0 51.4558 -3.27826e-07 47.7501 0.242615 44.7676C0.489487 41.7124 1.00877 39.1321 2.20056 36.7743C4.1401 32.9488 7.23491 29.839 11.0411 27.891C12.8629 26.9581 14.8208 26.4361 17.0256 26.1323V23.6119C17.0256 20.133 17.0256 17.326 17.2087 15.0538C17.4002 12.7174 17.8046 10.6634 18.7665 8.76354C20.2961 5.74217 22.7383 3.28548 25.7428 1.74586C27.6326 0.778791 29.6757 0.376558 31.9997 0.184C34.2598 -8.9407e-08 37.052 0 40.5125 0ZM59.5897 23.7488V25.7172C57.5637 25.6744 55.2823 25.6744 52.7071 25.6744H30.2929C27.7177 25.6744 25.4363 25.6744 23.4103 25.7172V23.7488C23.4103 20.1031 23.4103 17.557 23.572 15.5758C23.7295 13.6374 24.0274 12.5206 24.4531 11.6776C25.3715 9.86437 26.8378 8.39031 28.6414 7.46698C29.4799 7.03907 30.5908 6.73954 32.5232 6.58121C34.4897 6.42288 37.018 6.4186 40.6487 6.4186H42.3513C45.982 6.4186 48.5103 6.41861 50.481 6.58121C52.4092 6.73954 53.5201 7.03907 54.3629 7.46698C56.1633 8.39126 57.6275 9.86326 58.5469 11.6776C58.9726 12.5206 59.2705 13.6374 59.428 15.5801C59.5855 17.557 59.5897 20.1031 59.5897 23.7488ZM19.5114 32.3155C16.8724 32.5295 15.2337 32.9446 13.9355 33.6078C11.3333 34.941 9.21752 37.068 7.89138 39.6841C7.23164 40.9892 6.82303 42.6367 6.60595 45.2897C6.38887 47.9855 6.38461 51.4259 6.38461 56.2698V61.4047C6.38461 66.2528 6.38462 69.6932 6.60595 72.3848C6.81877 75.0378 7.23164 76.6852 7.89138 77.9903C9.21752 80.6064 11.3333 82.7334 13.9355 84.0666C15.2337 84.7299 16.8724 85.1407 19.5114 85.3589C22.1929 85.5771 25.6151 85.5814 30.4333 85.5814H52.5667C57.3892 85.5814 60.8113 85.5814 63.4886 85.3589C66.1276 85.1449 67.7663 84.7299 69.0645 84.0666C71.6667 82.7334 73.7825 80.6064 75.1086 77.9903C75.7684 76.6852 76.177 75.0378 76.3941 72.3848C76.6111 69.6889 76.6154 66.2528 76.6154 61.4047V56.2698C76.6154 51.4216 76.6154 47.9812 76.3941 45.2897C76.1812 42.6367 75.7684 40.9892 75.1086 39.6841C73.7825 37.068 71.6667 34.941 69.0645 33.6078C67.7663 32.9446 66.1276 32.5338 63.4886 32.3155C60.8071 32.0973 57.3849 32.093 52.5667 32.093H30.4333C25.6151 32.093 22.1887 32.093 19.5114 32.3155ZM44.6923 54.5581C44.6923 53.707 44.356 52.8907 43.7573 52.2888C43.1586 51.687 42.3467 51.3488 41.5 51.3488C40.6533 51.3488 39.8414 51.687 39.2427 52.2888C38.644 52.8907 38.3077 53.707 38.3077 54.5581V63.1163C38.3077 63.9674 38.644 64.7837 39.2427 65.3856C39.8414 65.9875 40.6533 66.3256 41.5 66.3256C42.3467 66.3256 43.1586 65.9875 43.7573 65.3856C44.356 64.7837 44.6923 63.9674 44.6923 63.1163V54.5581Z" fill="#FF831E"/>
</svg>
