<svg width="101" height="92" viewBox="0 0 101 92" fill="none" xmlns="http://www.w3.org/2000/svg">
<path fill-rule="evenodd" clip-rule="evenodd" d="M19.3404 20.3256C19.3404 16.6372 20.8121 13.0999 23.4316 10.4919C26.0511 7.8838 29.6039 6.4186 33.3085 6.4186C37.0131 6.4186 40.5659 7.8838 43.1854 10.4919C45.805 13.0999 47.2766 16.6372 47.2766 20.3256C47.2766 24.0139 45.805 27.5512 43.1854 30.1593C40.5659 32.7674 37.0131 34.2326 33.3085 34.2326C29.6039 34.2326 26.0511 32.7674 23.4316 30.1593C20.8121 27.5512 19.3404 24.0139 19.3404 20.3256ZM33.3085 0C27.8941 0 22.7015 2.14144 18.873 5.95323C15.0445 9.76501 12.8936 14.9349 12.8936 20.3256C12.8936 25.7163 15.0445 30.8862 18.873 34.6979C22.7015 38.5097 27.8941 40.6512 33.3085 40.6512C38.7229 40.6512 43.9155 38.5097 47.744 34.6979C51.5726 30.8862 53.7234 25.7163 53.7234 20.3256C53.7234 14.9349 51.5726 9.76501 47.744 5.95323C43.9155 2.14144 38.7229 0 33.3085 0ZM63.3936 0C62.5387 0 61.7188 0.338122 61.1143 0.939983C60.5098 1.54184 60.1702 2.35814 60.1702 3.2093C60.1702 4.06046 60.5098 4.87676 61.1143 5.47862C61.7188 6.08048 62.5387 6.4186 63.3936 6.4186C67.0982 6.4186 70.651 7.8838 73.2706 10.4919C75.8901 13.0999 77.3617 16.6372 77.3617 20.3256C77.3617 24.0139 75.8901 27.5512 73.2706 30.1593C70.651 32.7674 67.0982 34.2326 63.3936 34.2326C62.5387 34.2326 61.7188 34.5707 61.1143 35.1725C60.5098 35.7744 60.1702 36.5907 60.1702 37.4419C60.1702 38.293 60.5098 39.1093 61.1143 39.7112C61.7188 40.313 62.5387 40.6512 63.3936 40.6512C68.808 40.6512 74.0006 38.5097 77.8291 34.6979C81.6577 30.8862 83.8085 25.7163 83.8085 20.3256C83.8085 14.9349 81.6577 9.76501 77.8291 5.95323C74.0006 2.14144 68.808 0 63.3936 0ZM0 75.0977C0 71.9789 0.616981 68.8907 1.81572 66.0094C3.01445 63.1281 4.77147 60.51 6.98644 58.3047C11.4598 53.8509 17.5269 51.3488 23.8532 51.3488H42.7638C45.8963 51.3488 48.9981 51.9631 51.8921 53.1566C54.7861 54.3501 57.4156 56.0994 59.6306 58.3047C61.8456 60.51 63.6026 63.1281 64.8013 66.0094C66 68.8907 66.617 71.9789 66.617 75.0977C66.617 79.5804 64.8284 83.8796 61.6447 87.0494C58.461 90.2192 54.1429 92 49.6404 92H16.9766C12.4741 92 8.15606 90.2192 4.97233 87.0494C1.7886 83.8796 0 79.5804 0 75.0977ZM23.8532 57.7674C19.2367 57.7674 14.8094 59.5933 11.545 62.8433C8.28069 66.0934 6.44681 70.5014 6.44681 75.0977C6.44681 77.8781 7.55619 80.5447 9.53091 82.5108C11.5056 84.4769 14.1839 85.5814 16.9766 85.5814H49.6404C52.4331 85.5814 55.1114 84.4769 57.0861 82.5108C59.0608 80.5447 60.1702 77.8781 60.1702 75.0977C60.1702 70.5014 58.3363 66.0934 55.072 62.8433C51.8077 59.5933 47.3803 57.7674 42.7638 57.7674H23.8532ZM71.9894 51.3488C71.1345 51.3488 70.3146 51.687 69.7101 52.2888C69.1056 52.8907 68.766 53.707 68.766 54.5581C68.766 55.4093 69.1056 56.2256 69.7101 56.8275C70.3146 57.4293 71.1345 57.7674 71.9894 57.7674H77.1468C81.7633 57.7674 86.1907 59.5933 89.455 62.8433C92.7193 66.0934 94.5532 70.5014 94.5532 75.0977C94.5532 77.8781 93.4438 80.5447 91.4691 82.5108C89.4944 84.4769 86.8161 85.5814 84.0234 85.5814H71.9894C71.1345 85.5814 70.3146 85.9195 69.7101 86.5214C69.1056 87.1232 68.766 87.9395 68.766 88.7907C68.766 89.6419 69.1056 90.4582 69.7101 91.06C70.3146 91.6619 71.1345 92 71.9894 92H84.0234C88.5259 92 92.8439 90.2192 96.0277 87.0494C99.2114 83.8796 101 79.5804 101 75.0977C101 71.9789 100.383 68.8907 99.1843 66.0094C97.9855 63.1281 96.2285 60.51 94.0136 58.3047C91.7986 56.0994 89.169 54.3501 86.275 53.1566C83.381 51.9631 80.2793 51.3488 77.1468 51.3488H71.9894Z" fill="#FF831E"/>
</svg>
