<svg width="92" height="92" viewBox="0 0 92 92" fill="none" xmlns="http://www.w3.org/2000/svg">
<path fill-rule="evenodd" clip-rule="evenodd" d="M44.1429 0H47.8571C54.9219 0 60.4248 -2.98023e-08 64.8365 0.359442C69.3167 0.727442 72.9539 1.48056 76.2273 3.1494C81.6625 5.91863 86.0814 10.3375 88.8506 15.7727C90.5194 19.0461 91.2726 22.6833 91.6406 27.1635C92 31.5753 92 37.0781 92 44.1429V59.6716C92 61.0195 92 61.824 91.9572 62.6028C91.6016 69.1743 89.0126 75.4273 84.6186 80.3267C84.0923 80.9087 83.5275 81.4778 82.5732 82.432L82.5005 82.5005L82.432 82.5732C81.4778 83.5275 80.9087 84.0923 80.3267 84.6186C75.4284 89.0117 69.1771 91.6007 62.6071 91.9572C61.824 92 61.0238 92 59.6716 92H44.1429C37.0781 92 31.5753 92 27.1635 91.6406C22.6833 91.2726 19.0461 90.5194 15.7727 88.8506C10.3375 86.0814 5.91863 81.6625 3.1494 76.2273C1.48056 72.9539 0.727442 69.3167 0.359442 64.8365C-2.98023e-08 60.4248 0 54.9219 0 47.8571V44.1429C0 37.0781 -2.98023e-08 31.5753 0.359442 27.1635C0.727442 22.6833 1.48056 19.0461 3.1494 15.7727C5.91863 10.3375 10.3375 5.91863 15.7727 3.1494C19.0461 1.48056 22.6833 0.727442 27.1635 0.359442C31.5753 -2.98023e-08 37.0781 0 44.1429 0ZM27.6856 6.76093C23.6033 7.09042 20.9033 7.73656 18.6867 8.86623C14.4581 11.0203 11.0203 14.4581 8.86623 18.6867C7.73656 20.9033 7.09042 23.6076 6.75665 27.6856C6.42288 31.8063 6.4186 37.0439 6.4186 44.2884V47.7116C6.4186 54.9518 6.4186 60.1937 6.76093 64.3144C7.09042 68.3967 7.73656 71.0967 8.86623 73.3133C11.0203 77.5419 14.4581 80.9797 18.6867 83.1338C20.9033 84.2634 23.6076 84.9096 27.6856 85.2433C31.8063 85.5771 37.0439 85.5814 44.2884 85.5814H59.907V76.6809C59.907 74.3916 59.907 72.4874 60.0354 70.9256C60.1637 69.2995 60.4547 67.7762 61.1907 66.3341C62.3181 64.1203 64.117 62.3199 66.3299 61.1907C67.7762 60.4547 69.2995 60.1637 70.9256 60.0354C72.4874 59.907 74.3916 59.907 76.6809 59.907H85.5814V44.2884C85.5814 37.0439 85.5814 31.8063 85.2391 27.6856C84.9096 23.6033 84.2634 20.9033 83.1338 18.6867C80.9797 14.4581 77.5419 11.0203 73.3133 8.86623C71.0967 7.73656 68.3924 7.09042 64.3144 6.75665C60.1937 6.42288 54.9518 6.4186 47.7116 6.4186H44.2884C37.0439 6.4186 31.8063 6.4186 27.6856 6.76093ZM76.0391 79.8389C73.2739 82.3204 69.9364 84.0773 66.3256 84.9524V76.8093C66.3256 74.3617 66.3256 72.7142 66.4326 71.4476C66.531 70.2195 66.7107 69.6333 66.9075 69.2482C67.4206 68.2401 68.2401 67.4206 69.2482 66.9075C69.6333 66.7107 70.2195 66.531 71.4519 66.4326C72.7142 66.3299 74.3617 66.3256 76.8093 66.3256H84.9524C84.0773 69.9364 82.3204 73.2739 79.8389 76.0391C79.4452 76.4798 79.0087 76.9206 77.9647 77.9647C76.9206 79.0087 76.4798 79.4452 76.0391 79.8389ZM24.6047 21.3953C23.7535 21.3953 22.9372 21.7335 22.3353 22.3353C21.7335 22.9372 21.3953 23.7535 21.3953 24.6047C21.3953 25.4558 21.7335 26.2721 22.3353 26.874C22.9372 27.4758 23.7535 27.814 24.6047 27.814H58.8372C59.6884 27.814 60.5047 27.4758 61.1065 26.874C61.7084 26.2721 62.0465 25.4558 62.0465 24.6047C62.0465 23.7535 61.7084 22.9372 61.1065 22.3353C60.5047 21.7335 59.6884 21.3953 58.8372 21.3953H24.6047ZM21.3953 41.7209C21.3953 40.8698 21.7335 40.0535 22.3353 39.4516C22.9372 38.8498 23.7535 38.5116 24.6047 38.5116H50.2791C51.1302 38.5116 51.9465 38.8498 52.5484 39.4516C53.1502 40.0535 53.4884 40.8698 53.4884 41.7209C53.4884 42.5721 53.1502 43.3884 52.5484 43.9902C51.9465 44.5921 51.1302 44.9302 50.2791 44.9302H24.6047C23.7535 44.9302 22.9372 44.5921 22.3353 43.9902C21.7335 43.3884 21.3953 42.5721 21.3953 41.7209ZM24.6047 55.6279C23.7535 55.6279 22.9372 55.966 22.3353 56.5679C21.7335 57.1698 21.3953 57.9861 21.3953 58.8372C21.3953 59.6884 21.7335 60.5047 22.3353 61.1065C22.9372 61.7084 23.7535 62.0465 24.6047 62.0465H33.1628C34.014 62.0465 34.8302 61.7084 35.4321 61.1065C36.034 60.5047 36.3721 59.6884 36.3721 58.8372C36.3721 57.9861 36.034 57.1698 35.4321 56.5679C34.8302 55.966 34.014 55.6279 33.1628 55.6279H24.6047Z" fill="#FF831E"/>
</svg>
